<?xml version="1.0" encoding="UTF-8" standalone="no"?>
<!-- Generator: Adobe Illustrator 19.0.0, SVG Export Plug-In . SVG Version: 6.00 Build 0)  -->

<svg
   xmlns:dc="http://purl.org/dc/elements/1.1/"
   xmlns:cc="http://creativecommons.org/ns#"
   xmlns:rdf="http://www.w3.org/1999/02/22-rdf-syntax-ns#"
   xmlns:svg="http://www.w3.org/2000/svg"
   xmlns="http://www.w3.org/2000/svg"
   xmlns:sodipodi="http://sodipodi.sourceforge.net/DTD/sodipodi-0.dtd"
   xmlns:inkscape="http://www.inkscape.org/namespaces/inkscape"
   version="1.1"
   id="Layer_1"
   x="0px"
   y="0px"
   viewBox="0 0 512 512"
   style="enable-background:new 0 0 512 512;"
   xml:space="preserve"
   inkscape:version="0.91 r13725"
   sodipodi:docname="baby_face_question.svg"><metadata
     id="metadata4367"><rdf:RDF><cc:Work
         rdf:about=""><dc:format>image/svg+xml</dc:format><dc:type
           rdf:resource="http://purl.org/dc/dcmitype/StillImage" /><dc:title></dc:title></cc:Work></rdf:RDF></metadata><defs
     id="defs4365" /><sodipodi:namedview
     pagecolor="#ffffff"
     bordercolor="#666666"
     borderopacity="1"
     objecttolerance="10"
     gridtolerance="10"
     guidetolerance="10"
     inkscape:pageopacity="0"
     inkscape:pageshadow="2"
     inkscape:window-width="655"
     inkscape:window-height="515"
     id="namedview4363"
     showgrid="false"
     inkscape:zoom="0.4609375"
     inkscape:cx="256"
     inkscape:cy="256"
     inkscape:window-x="2664"
     inkscape:window-y="284"
     inkscape:window-maximized="0"
     inkscape:current-layer="Layer_1" /><g
     id="g4303"><g
       id="g4305"><path
         d="M464.143,191.814c-27.46-88.867-110.382-153.619-208.148-153.619c-97.767,0-180.69,64.752-208.148,153.62    C19.8,200.162,0,226.278,0,255.999c0,29.719,19.8,55.835,47.846,64.182c27.458,88.871,110.382,153.624,208.149,153.624    s180.69-64.753,208.149-153.622C492.196,311.844,512,285.729,512,255.999C512,226.267,492.195,200.152,464.143,191.814z     M42.049,296.854c-13.885-8.51-22.945-23.858-22.945-40.856c0-16.999,9.059-32.347,22.946-40.856    c-2.523,13.24-3.86,26.894-3.86,40.857C38.19,269.962,39.526,283.616,42.049,296.854z M255.995,454.7    c-109.563,0-198.7-89.137-198.7-198.7c0-75.771,42.638-141.762,105.173-175.268c9.5,20.215,39.383,70.795,110.219,99.13    c1.163,0.466,2.363,0.686,3.544,0.686c3.79,0,7.378-2.272,8.872-6.008c1.959-4.898-0.424-10.457-5.323-12.417    c-64.362-25.745-91.763-72.396-100.002-89.616c21.698-9.047,45.329-14.35,70.086-15.104c6.62,13.427,25.628,44.949,64.903,62.802    c1.283,0.583,2.625,0.858,3.947,0.858c3.631,0,7.102-2.081,8.703-5.602c2.183-4.803,0.059-10.465-4.744-12.648    c-26.462-12.028-42.342-31.698-50.571-44.856c102.058,8.228,182.59,93.904,182.59,198.044    C454.695,365.563,365.56,454.7,255.995,454.7z M469.938,296.862c2.524-13.241,3.86-26.898,3.86-40.862    c0-13.965-1.337-27.624-3.862-40.866c13.893,8.504,22.957,23.855,22.957,40.865C492.895,273.007,483.832,288.358,469.938,296.862z    "
         id="path4307" /></g></g><g
     id="g4309"><g
       id="g4311" /></g><g
     id="g4327"><g
       id="g4329" /></g><g
     id="g4333" /><g
     id="g4335" /><g
     id="g4337" /><g
     id="g4339" /><g
     id="g4341" /><g
     id="g4343" /><g
     id="g4345" /><g
     id="g4347" /><g
     id="g4349" /><g
     id="g4351" /><g
     id="g4353" /><g
     id="g4355" /><g
     id="g4357" /><g
     id="g4359" /><g
     id="g4361" /><g
     transform="matrix(0.71068395,0,0,0.56779661,74.065265,114.98305)"
     id="g3809"><g
       id="g3811"><path
         inkscape:connector-curvature="0"
         d="m 256.55,428.956 c -22.895,0 -41.522,18.627 -41.522,41.522 0,22.895 18.627,41.522 41.522,41.522 22.895,0 41.522,-18.627 41.522,-41.522 0,-22.895 -18.627,-41.522 -41.522,-41.522 z m 0,62.646 c -11.647,0 -21.124,-9.477 -21.124,-21.125 0,-11.647 9.476,-21.124 21.124,-21.124 11.648,0 21.124,9.477 21.124,21.125 0,11.648 -9.477,21.124 -21.124,21.124 z"
         id="path3813" /></g></g><g
     transform="matrix(0.71068395,0,0,0.56779661,74.065265,114.98305)"
     id="g3815"><g
       id="g3817"><path
         inkscape:connector-curvature="0"
         d="M 256,0 C 169.169,0 98.527,70.642 98.527,157.473 c 0,22.935 18.659,41.594 41.594,41.594 22.935,0 41.594,-18.659 41.594,-41.594 0,-40.961 33.324,-74.284 74.284,-74.284 40.96,0 74.284,33.322 74.284,74.283 0,40.961 -33.323,74.283 -74.283,74.283 -22.935,0 -41.594,18.659 -41.594,41.594 l 0,97.041 c 0,22.935 18.659,41.594 41.594,41.594 22.935,0 41.594,-18.658 41.594,-41.594 l 0,-61.025 c 31.373,-8.622 59.702,-27.049 80.458,-52.489 22.841,-27.995 35.42,-63.298 35.42,-99.404 C 413.473,70.642 342.831,0 256,0 Z m 29.224,291.412 c -4.687,1.022 -8.028,5.17 -8.028,9.966 l 0,69.014 c 0,11.687 -9.509,21.196 -21.196,21.196 -11.687,0 -21.196,-9.509 -21.196,-21.196 l 0,-97.042 c 0,-11.687 9.509,-21.196 21.196,-21.196 52.208,0 94.682,-42.474 94.682,-94.681 0,-52.207 -42.474,-94.683 -94.682,-94.683 -52.208,0 -94.682,42.475 -94.682,94.682 0,11.687 -9.509,21.196 -21.196,21.196 -11.687,0 -21.196,-9.509 -21.196,-21.196 0,-75.583 61.491,-137.074 137.074,-137.074 75.583,0 137.074,61.491 137.074,137.073 0,63.99 -45.358,120.321 -107.85,133.941 z"
         id="path3819" /></g></g><g
     transform="matrix(0.71068395,0,0,0.56779661,74.065265,114.98305)"
     id="g3833" /><g
     transform="matrix(0.71068395,0,0,0.56779661,74.065265,114.98305)"
     id="g3835" /><g
     transform="matrix(0.71068395,0,0,0.56779661,74.065265,114.98305)"
     id="g3837" /><g
     transform="matrix(0.71068395,0,0,0.56779661,74.065265,114.98305)"
     id="g3839" /><g
     transform="matrix(0.71068395,0,0,0.56779661,74.065265,114.98305)"
     id="g3841" /><g
     transform="matrix(0.71068395,0,0,0.56779661,74.065265,114.98305)"
     id="g3843" /><g
     transform="matrix(0.71068395,0,0,0.56779661,74.065265,114.98305)"
     id="g3845" /><g
     transform="matrix(0.71068395,0,0,0.56779661,74.065265,114.98305)"
     id="g3847" /><g
     transform="matrix(0.71068395,0,0,0.56779661,74.065265,114.98305)"
     id="g3849" /><g
     transform="matrix(0.71068395,0,0,0.56779661,74.065265,114.98305)"
     id="g3851" /><g
     transform="matrix(0.71068395,0,0,0.56779661,74.065265,114.98305)"
     id="g3853" /><g
     transform="matrix(0.71068395,0,0,0.56779661,74.065265,114.98305)"
     id="g3855" /><g
     transform="matrix(0.71068395,0,0,0.56779661,74.065265,114.98305)"
     id="g3857" /><g
     transform="matrix(0.71068395,0,0,0.56779661,74.065265,114.98305)"
     id="g3859" /><g
     transform="matrix(0.71068395,0,0,0.56779661,74.065265,114.98305)"
     id="g3861" /></svg>