<?xml version="1.0" encoding="UTF-8" standalone="no"?>
<!-- Generator: Adobe Illustrator 19.0.0, SVG Export Plug-In . SVG Version: 6.00 Build 0)  -->

<svg
   xmlns:dc="http://purl.org/dc/elements/1.1/"
   xmlns:cc="http://creativecommons.org/ns#"
   xmlns:rdf="http://www.w3.org/1999/02/22-rdf-syntax-ns#"
   xmlns:svg="http://www.w3.org/2000/svg"
   xmlns="http://www.w3.org/2000/svg"
   xmlns:sodipodi="http://sodipodi.sourceforge.net/DTD/sodipodi-0.dtd"
   xmlns:inkscape="http://www.inkscape.org/namespaces/inkscape"
   version="1.1"
   id="Layer_1"
   x="0px"
   y="0px"
   viewBox="0 0 512 512"
   style="enable-background:new 0 0 512 512;"
   xml:space="preserve"
   inkscape:version="0.91 r13725"
   sodipodi:docname="cat_face_no.svg"><metadata
     id="metadata63"><rdf:RDF><cc:Work
         rdf:about=""><dc:format>image/svg+xml</dc:format><dc:type
           rdf:resource="http://purl.org/dc/dcmitype/StillImage" /><dc:title></dc:title></cc:Work></rdf:RDF></metadata><defs
     id="defs61" /><sodipodi:namedview
     pagecolor="#ffffff"
     bordercolor="#666666"
     borderopacity="1"
     objecttolerance="10"
     gridtolerance="10"
     guidetolerance="10"
     inkscape:pageopacity="0"
     inkscape:pageshadow="2"
     inkscape:window-width="665"
     inkscape:window-height="522"
     id="namedview59"
     showgrid="false"
     inkscape:zoom="0.4609375"
     inkscape:cx="256"
     inkscape:cy="256"
     inkscape:window-x="1738"
     inkscape:window-y="259"
     inkscape:window-maximized="0"
     inkscape:current-layer="Layer_1" /><g
     id="g3"><g
       id="g5"><g
         id="g7"><path
           d="M473.639,165.303V23.528c0-4.462-2.38-8.585-6.245-10.816c-3.864-2.231-8.625-2.231-12.489,0L346.304,75.413     c-28.848-9.339-59.196-14.07-90.305-14.07s-61.457,4.731-90.305,14.07l-108.6-62.702c-3.864-2.231-8.625-2.231-12.489,0     c-3.864,2.231-6.245,6.353-6.245,10.816v141.777C13.25,200.033,0,239.998,0,281.152C0,340.25,26.889,395.689,75.716,437.26     c48.25,41.08,112.276,63.703,180.285,63.703s132.035-22.623,180.285-63.703C485.111,395.691,512,340.251,512,281.152     C512,239.997,498.75,200.033,473.639,165.303z M256.001,475.984c-127.386,0-231.022-87.401-231.022-194.832     c0-37.041,12.397-73.083,35.849-104.229c1.631-2.164,2.513-4.802,2.513-7.512V45.159l94.741,54.699     c3.137,1.812,6.908,2.171,10.331,0.987c27.832-9.637,57.301-14.524,87.588-14.524c30.288,0,59.756,4.887,87.588,14.524     c3.422,1.185,7.193,0.826,10.331-0.987l94.741-54.699v124.253c0,2.71,0.882,5.348,2.513,7.512     c23.452,31.146,35.849,67.187,35.849,104.229C487.022,388.583,383.386,475.984,256.001,475.984z"
           id="path9" /><path
           d="M411.193,154.894c6.898,0,12.489-5.591,12.489-12.489v-32.351c0-6.898-5.591-12.489-12.489-12.489     s-12.489,5.591-12.489,12.489v32.35C398.704,149.303,404.295,154.894,411.193,154.894z"
           id="path15" /><path
           d="M100.807,154.894c6.898,0,12.489-5.591,12.489-12.489v-32.351c0-6.898-5.591-12.489-12.489-12.489     c-6.898,0-12.489,5.591-12.489,12.489v32.35C88.318,149.303,93.909,154.894,100.807,154.894z"
           id="path17" /><path
           d="M155.951,274.062l-59.128-15.403c-6.676-1.733-13.496,2.263-15.234,8.937c-1.739,6.676,2.263,13.496,8.937,15.234     l59.128,15.403c1.055,0.275,2.114,0.406,3.157,0.406c5.548,0,10.613-3.724,12.077-9.343     C166.626,282.622,162.625,275.801,155.951,274.062z"
           id="path19" /><path
           d="M149.654,324.02l-59.128,15.403c-6.674,1.74-10.676,8.56-8.937,15.234c1.464,5.62,6.529,9.343,12.077,9.343     c1.042,0,2.102-0.131,3.157-0.406l59.128-15.403c6.674-1.74,10.676-8.56,8.937-15.234     C163.148,326.28,156.327,322.28,149.654,324.02z"
           id="path21" /><path
           d="M347.112,289.296c1.464,5.62,6.529,9.343,12.077,9.343c1.042,0,2.102-0.131,3.157-0.406l59.128-15.403     c6.674-1.74,10.676-8.56,8.937-15.234c-1.739-6.674-8.559-10.675-15.234-8.937l-59.128,15.403     C349.375,275.801,345.374,282.622,347.112,289.296z"
           id="path23" /><path
           d="M421.474,339.423l-59.128-15.403c-6.675-1.742-13.495,2.262-15.234,8.937c-1.739,6.674,2.263,13.496,8.937,15.234     l59.128,15.403c1.057,0.275,2.114,0.406,3.157,0.406c5.548,0,10.613-3.724,12.077-9.343     C432.151,347.983,428.148,341.161,421.474,339.423z"
           id="path25" /></g></g></g><g
     id="g29" /><g
     id="g31" /><g
     id="g33" /><g
     id="g35" /><g
     id="g37" /><g
     id="g39" /><g
     id="g41" /><g
     id="g43" /><g
     id="g45" /><g
     id="g47" /><g
     id="g49" /><g
     id="g51" /><g
     id="g53" /><g
     id="g55" /><g
     id="g57" /><path
     style="display:inline"
     d="m 373.48979,163.19739 c -11.45941,-12.9485 -30.03103,-12.9485 -41.49044,0 l -77.08371,87.11676 -77.07773,-87.11676 c -11.46841,-12.9485 -30.03603,-12.9485 -41.49344,0 -11.46837,12.95532 -11.46837,33.95488 0,46.91016 l 77.06677,87.10997 -77.07277,87.11111 c -11.46838,12.96544 -11.46838,33.95483 0,46.90677 5.72622,6.47538 13.23423,9.71926 20.74822,9.71926 7.51101,0 15.01802,-3.24388 20.75122,-9.71926 l 77.07773,-87.11111 77.07774,87.11111 c 5.7242,6.47538 13.23722,9.71926 20.75121,9.71926 7.50799,0 15.015,-3.24388 20.7452,-9.71926 11.47136,-12.95194 11.47136,-33.95493 0,-46.90677 l -77.07277,-87.11111 77.07277,-87.10997 c 11.46535,-12.96206 11.46535,-33.95597 0,-46.91016 z"
     id="path3659"
     inkscape:connector-curvature="0"
     sodipodi:nodetypes="cccccccccscccsccccc" /></svg>