<?xml version="1.0" encoding="UTF-8" standalone="no"?>
<!-- Generator: Adobe Illustrator 19.0.0, SVG Export Plug-In . SVG Version: 6.00 Build 0)  -->

<svg
   xmlns:dc="http://purl.org/dc/elements/1.1/"
   xmlns:cc="http://creativecommons.org/ns#"
   xmlns:rdf="http://www.w3.org/1999/02/22-rdf-syntax-ns#"
   xmlns:svg="http://www.w3.org/2000/svg"
   xmlns="http://www.w3.org/2000/svg"
   xmlns:sodipodi="http://sodipodi.sourceforge.net/DTD/sodipodi-0.dtd"
   xmlns:inkscape="http://www.inkscape.org/namespaces/inkscape"
   version="1.1"
   id="Layer_1"
   x="0px"
   y="0px"
   viewBox="0 0 512.001 512.001"
   style="enable-background:new 0 0 512.001 512.001;"
   xml:space="preserve"
   inkscape:version="0.91 r13725"
   sodipodi:docname="dog_face_no.svg"><metadata
     id="metadata3991"><rdf:RDF><cc:Work
         rdf:about=""><dc:format>image/svg+xml</dc:format><dc:type
           rdf:resource="http://purl.org/dc/dcmitype/StillImage" /><dc:title></dc:title></cc:Work></rdf:RDF></metadata><defs
     id="defs3989" /><sodipodi:namedview
     pagecolor="#ffffff"
     bordercolor="#666666"
     borderopacity="1"
     objecttolerance="10"
     gridtolerance="10"
     guidetolerance="10"
     inkscape:pageopacity="0"
     inkscape:pageshadow="2"
     inkscape:window-width="667"
     inkscape:window-height="493"
     id="namedview3987"
     showgrid="false"
     inkscape:zoom="0.46093662"
     inkscape:cx="256.00049"
     inkscape:cy="256.00049"
     inkscape:window-x="2623"
     inkscape:window-y="301"
     inkscape:window-maximized="0"
     inkscape:current-layer="Layer_1" /><g
     id="g3947"><g
       id="g3949"><path
         inkscape:connector-curvature="0"
         id="path3951"
         d="M 490.748,146.253 C 474.454,118.82 451.563,92.725 436.107,79.035 402.367,49.142 374.222,49.87 360.445,52.966 354.657,54.267 349.342,56.412 344.663,59.273 320.624,41.434 291.38,32.695 256,32.695 c -35.38,0 -64.625,8.739 -88.663,26.579 -4.68,-2.861 -9.994,-5.007 -15.782,-6.307 C 137.782,49.872 109.633,49.143 75.895,79.035 60.438,92.726 37.548,118.821 21.252,146.254 -0.81,183.395 -5.724,213.44 6.646,235.557 21.75,262.56 44.66,269.47 63.155,271.174 c -4.546,17.655 -7.353,36.542 -7.353,60.075 0,31.193 7.1,58.029 21.105,79.763 12.311,19.108 30.035,34.409 52.679,45.478 41.838,20.451 92.185,22.816 126.415,22.816 34.23,0 84.578,-2.365 126.415,-22.816 22.643,-11.069 40.368,-26.37 52.679,-45.478 14.004,-21.735 21.105,-48.571 21.105,-79.763 0,-23.532 -2.807,-42.419 -7.353,-60.075 18.495,-1.705 41.406,-8.616 56.509,-35.618 12.368,-22.115 7.453,-52.161 -14.608,-89.303 z M 72.878,240.307 C 56.51,239.877 43.2,236.708 33.999,220.259 c -6.242,-11.161 -1.067,-32.301 14.2,-58.002 14.489,-24.393 35.286,-48.079 48.478,-59.766 21.786,-19.304 38.118,-20.367 45.802,-19.338 -22.867,27.876 -36.883,64.104 -48.604,99.327 -4.854,14.586 -9.532,27.039 -14.058,39.084 -2.42,6.444 -4.748,12.642 -6.939,18.743 z m 295.775,188.028 c -24.051,11.755 -55.889,18.131 -96.983,19.394 l -31.339,0 C 199.237,446.467 167.399,440.092 143.348,428.335 105.526,409.847 87.14,378.09 87.14,331.249 c 0,-40.072 9.234,-64.649 22.013,-98.664 4.413,-11.745 9.413,-25.057 14.456,-40.21 27.7,-83.236 57.002,-128.341 132.391,-128.341 75.389,0 104.691,45.106 132.39,128.341 5.042,15.154 10.044,28.465 14.456,40.21 12.779,34.015 22.013,58.591 22.013,98.664 0.001,46.841 -18.385,78.598 -56.206,97.086 z m 109.35,-208.076 c -9.202,16.451 -22.512,19.617 -38.88,20.048 -2.192,-6.102 -4.518,-12.299 -6.938,-18.743 -4.525,-12.044 -9.203,-24.498 -14.058,-39.084 -11.721,-35.223 -25.737,-71.451 -48.604,-99.327 7.684,-1.027 24.017,0.034 45.804,19.339 13.192,11.685 33.988,35.37 48.477,59.763 15.266,25.703 20.441,46.844 14.199,58.004 z"
         sodipodi:nodetypes="scccsccccccscssccsccsccccccccccccsccscccccccccccc" /></g></g><g
     id="g3957" /><g
     id="g3959" /><g
     id="g3961" /><g
     id="g3963" /><g
     id="g3965" /><g
     id="g3967" /><g
     id="g3969" /><g
     id="g3971" /><g
     id="g3973" /><g
     id="g3975" /><g
     id="g3977" /><g
     id="g3979" /><g
     id="g3981" /><g
     id="g3983" /><g
     id="g3985" /><path
     d="m 374.65386,176.39391 c -11.467,-11.464 -30.051,-11.464 -41.518,0 l -77.135,77.129 -77.129,-77.129 c -11.476,-11.464 -30.056,-11.464 -41.521,0 -11.476,11.47 -11.476,30.062 0,41.532 l 77.118,77.123 -77.124,77.124 c -11.476,11.479 -11.476,30.062 0,41.529 5.73,5.733 13.243,8.605 20.762,8.605 7.516,0 15.028,-2.872 20.765,-8.605 l 77.129,-77.124 77.129,77.124 c 5.728,5.733 13.246,8.605 20.765,8.605 7.513,0 15.025,-2.872 20.759,-8.605 11.479,-11.467 11.479,-30.062 0,-41.529 l -77.124,-77.124 77.124,-77.123 c 11.473,-11.476 11.473,-30.063 0,-41.532 z"
     id="path3659"
     inkscape:connector-curvature="0"
     sodipodi:nodetypes="cccccccccscccsccccc" /></svg>