<?xml version="1.0" encoding="UTF-8" standalone="no"?>
<!-- Generator: Adobe Illustrator 19.0.0, SVG Export Plug-In . SVG Version: 6.00 Build 0)  -->

<svg
   xmlns:dc="http://purl.org/dc/elements/1.1/"
   xmlns:cc="http://creativecommons.org/ns#"
   xmlns:rdf="http://www.w3.org/1999/02/22-rdf-syntax-ns#"
   xmlns:svg="http://www.w3.org/2000/svg"
   xmlns="http://www.w3.org/2000/svg"
   xmlns:sodipodi="http://sodipodi.sourceforge.net/DTD/sodipodi-0.dtd"
   xmlns:inkscape="http://www.inkscape.org/namespaces/inkscape"
   version="1.1"
   id="Layer_1"
   x="0px"
   y="0px"
   viewBox="0 0 512.001 512.001"
   style="enable-background:new 0 0 512.001 512.001;"
   xml:space="preserve"
   inkscape:version="0.91 r13725"
   sodipodi:docname="dog_face_question.svg"><metadata
     id="metadata3991"><rdf:RDF><cc:Work
         rdf:about=""><dc:format>image/svg+xml</dc:format><dc:type
           rdf:resource="http://purl.org/dc/dcmitype/StillImage" /><dc:title></dc:title></cc:Work></rdf:RDF></metadata><defs
     id="defs3989" /><sodipodi:namedview
     pagecolor="#ffffff"
     bordercolor="#666666"
     borderopacity="1"
     objecttolerance="10"
     gridtolerance="10"
     guidetolerance="10"
     inkscape:pageopacity="0"
     inkscape:pageshadow="2"
     inkscape:window-width="667"
     inkscape:window-height="493"
     id="namedview3987"
     showgrid="false"
     inkscape:zoom="0.46093662"
     inkscape:cx="256.00049"
     inkscape:cy="256.00049"
     inkscape:window-x="2623"
     inkscape:window-y="301"
     inkscape:window-maximized="0"
     inkscape:current-layer="Layer_1" /><g
     id="g3947"><g
       id="g3949"><path
         inkscape:connector-curvature="0"
         id="path3951"
         d="M 490.748,146.253 C 474.454,118.82 451.563,92.725 436.107,79.035 402.367,49.142 374.222,49.87 360.445,52.966 354.657,54.267 349.342,56.412 344.663,59.273 320.624,41.434 291.38,32.695 256,32.695 c -35.38,0 -64.625,8.739 -88.663,26.579 -4.68,-2.861 -9.994,-5.007 -15.782,-6.307 C 137.782,49.872 109.633,49.143 75.895,79.035 60.438,92.726 37.548,118.821 21.252,146.254 -0.81,183.395 -5.724,213.44 6.646,235.557 21.75,262.56 44.66,269.47 63.155,271.174 c -4.546,17.655 -7.353,36.542 -7.353,60.075 0,31.193 7.1,58.029 21.105,79.763 12.311,19.108 30.035,34.409 52.679,45.478 41.838,20.451 92.185,22.816 126.415,22.816 34.23,0 84.578,-2.365 126.415,-22.816 22.643,-11.069 40.368,-26.37 52.679,-45.478 14.004,-21.735 21.105,-48.571 21.105,-79.763 0,-23.532 -2.807,-42.419 -7.353,-60.075 18.495,-1.705 41.406,-8.616 56.509,-35.618 12.368,-22.115 7.453,-52.161 -14.608,-89.303 z M 72.878,240.307 C 56.51,239.877 43.2,236.708 33.999,220.259 c -6.242,-11.161 -1.067,-32.301 14.2,-58.002 14.489,-24.393 35.286,-48.079 48.478,-59.766 21.786,-19.304 38.118,-20.367 45.802,-19.338 -22.867,27.876 -36.883,64.104 -48.604,99.327 -4.854,14.586 -9.532,27.039 -14.058,39.084 -2.42,6.444 -4.748,12.642 -6.939,18.743 z m 295.775,188.028 c -24.051,11.755 -55.889,18.131 -96.983,19.394 l -31.339,0 C 199.237,446.467 167.399,440.092 143.348,428.335 105.526,409.847 87.14,378.09 87.14,331.249 c 0,-40.072 9.234,-64.649 22.013,-98.664 4.413,-11.745 9.413,-25.057 14.456,-40.21 27.7,-83.236 57.002,-128.341 132.391,-128.341 75.389,0 104.691,45.106 132.39,128.341 5.042,15.154 10.044,28.465 14.456,40.21 12.779,34.015 22.013,58.591 22.013,98.664 0.001,46.841 -18.385,78.598 -56.206,97.086 z m 109.35,-208.076 c -9.202,16.451 -22.512,19.617 -38.88,20.048 -2.192,-6.102 -4.518,-12.299 -6.938,-18.743 -4.525,-12.044 -9.203,-24.498 -14.058,-39.084 -11.721,-35.223 -25.737,-71.451 -48.604,-99.327 7.684,-1.027 24.017,0.034 45.804,19.339 13.192,11.685 33.988,35.37 48.477,59.763 15.266,25.703 20.441,46.844 14.199,58.004 z"
         sodipodi:nodetypes="scccsccccccscssccsccsccccccccccccsccscccccccccccc" /></g></g><g
     id="g3957" /><g
     id="g3959" /><g
     id="g3961" /><g
     id="g3963" /><g
     id="g3965" /><g
     id="g3967" /><g
     id="g3969" /><g
     id="g3971" /><g
     id="g3973" /><g
     id="g3975" /><g
     id="g3977" /><g
     id="g3979" /><g
     id="g3981" /><g
     id="g3983" /><g
     id="g3985" /><g
     transform="matrix(0.61424453,0,0,0.63982982,96.584701,108.47527)"
     id="g3809"><g
       id="g3811"><path
         inkscape:connector-curvature="0"
         d="m 256.55,428.956 c -22.895,0 -41.522,18.627 -41.522,41.522 0,22.895 18.627,41.522 41.522,41.522 22.895,0 41.522,-18.627 41.522,-41.522 0,-22.895 -18.627,-41.522 -41.522,-41.522 z m 0,62.646 c -11.647,0 -21.124,-9.477 -21.124,-21.125 0,-11.647 9.476,-21.124 21.124,-21.124 11.648,0 21.124,9.477 21.124,21.125 0,11.648 -9.477,21.124 -21.124,21.124 z"
         id="path3813" /></g></g><g
     transform="matrix(0.61424453,0,0,0.63982982,96.584701,108.47527)"
     id="g3815"><g
       id="g3817"><path
         inkscape:connector-curvature="0"
         d="M 256,0 C 169.169,0 98.527,70.642 98.527,157.473 c 0,22.935 18.659,41.594 41.594,41.594 22.935,0 41.594,-18.659 41.594,-41.594 0,-40.961 33.324,-74.284 74.284,-74.284 40.96,0 74.284,33.322 74.284,74.283 0,40.961 -33.323,74.283 -74.283,74.283 -22.935,0 -41.594,18.659 -41.594,41.594 l 0,97.041 c 0,22.935 18.659,41.594 41.594,41.594 22.935,0 41.594,-18.658 41.594,-41.594 l 0,-61.025 c 31.373,-8.622 59.702,-27.049 80.458,-52.489 22.841,-27.995 35.42,-63.298 35.42,-99.404 C 413.473,70.642 342.831,0 256,0 Z m 29.224,291.412 c -4.687,1.022 -8.028,5.17 -8.028,9.966 l 0,69.014 c 0,11.687 -9.509,21.196 -21.196,21.196 -11.687,0 -21.196,-9.509 -21.196,-21.196 l 0,-97.042 c 0,-11.687 9.509,-21.196 21.196,-21.196 52.208,0 94.682,-42.474 94.682,-94.681 0,-52.207 -42.474,-94.683 -94.682,-94.683 -52.208,0 -94.682,42.475 -94.682,94.682 0,11.687 -9.509,21.196 -21.196,21.196 -11.687,0 -21.196,-9.509 -21.196,-21.196 0,-75.583 61.491,-137.074 137.074,-137.074 75.583,0 137.074,61.491 137.074,137.073 0,63.99 -45.358,120.321 -107.85,133.941 z"
         id="path3819" /></g></g><g
     transform="matrix(0.61424453,0,0,0.63982982,96.584701,108.47527)"
     id="g3833" /><g
     transform="matrix(0.61424453,0,0,0.63982982,96.584701,108.47527)"
     id="g3835" /><g
     transform="matrix(0.61424453,0,0,0.63982982,96.584701,108.47527)"
     id="g3837" /><g
     transform="matrix(0.61424453,0,0,0.63982982,96.584701,108.47527)"
     id="g3839" /><g
     transform="matrix(0.61424453,0,0,0.63982982,96.584701,108.47527)"
     id="g3841" /><g
     transform="matrix(0.61424453,0,0,0.63982982,96.584701,108.47527)"
     id="g3843" /><g
     transform="matrix(0.61424453,0,0,0.63982982,96.584701,108.47527)"
     id="g3845" /><g
     transform="matrix(0.61424453,0,0,0.63982982,96.584701,108.47527)"
     id="g3847" /><g
     transform="matrix(0.61424453,0,0,0.63982982,96.584701,108.47527)"
     id="g3849" /><g
     transform="matrix(0.61424453,0,0,0.63982982,96.584701,108.47527)"
     id="g3851" /><g
     transform="matrix(0.61424453,0,0,0.63982982,96.584701,108.47527)"
     id="g3853" /><g
     transform="matrix(0.61424453,0,0,0.63982982,96.584701,108.47527)"
     id="g3855" /><g
     transform="matrix(0.61424453,0,0,0.63982982,96.584701,108.47527)"
     id="g3857" /><g
     transform="matrix(0.61424453,0,0,0.63982982,96.584701,108.47527)"
     id="g3859" /><g
     transform="matrix(0.61424453,0,0,0.63982982,96.584701,108.47527)"
     id="g3861" /></svg>